<mxfile host="app.diagrams.net" agent="Mozilla/5.0 (Windows NT 10.0; Win64; x64) AppleWebKit/537.36 (KHTML, like Gecko) Chrome/131.0.0.0 Safari/537.36 Edg/131.0.0.0" version="25.0.3">
  <diagram name="P치gina-1" id="r6O-omhLz_u3z-x7y5v3">
    <mxGraphModel grid="1" page="1" gridSize="10" guides="1" tooltips="1" connect="1" arrows="1" fold="1" pageScale="1" pageWidth="827" pageHeight="1169" math="0" shadow="0">
      <root>
        <mxCell id="0" />
        <mxCell id="1" parent="0" />
        <mxCell id="7v5v2RUlMiE2IS-w_AOE-1" value="Bases de datos" style="shape=cylinder3;whiteSpace=wrap;html=1;boundedLbl=1;backgroundOutline=1;size=15;" vertex="1" parent="1">
          <mxGeometry x="550" y="615" width="140" height="90" as="geometry" />
        </mxCell>
        <mxCell id="7v5v2RUlMiE2IS-w_AOE-6" value="Controlador" style="rounded=0;whiteSpace=wrap;html=1;" vertex="1" parent="1">
          <mxGeometry x="120" y="620" width="140" height="80" as="geometry" />
        </mxCell>
        <mxCell id="7v5v2RUlMiE2IS-w_AOE-9" value="" style="endArrow=classic;html=1;rounded=0;exitX=1;exitY=0.5;exitDx=0;exitDy=0;entryX=0;entryY=0.5;entryDx=0;entryDy=0;entryPerimeter=0;dashed=1;" edge="1" parent="1" source="7v5v2RUlMiE2IS-w_AOE-6" target="7v5v2RUlMiE2IS-w_AOE-1">
          <mxGeometry width="50" height="50" relative="1" as="geometry">
            <mxPoint x="440" y="330" as="sourcePoint" />
            <mxPoint x="490" y="280" as="targetPoint" />
          </mxGeometry>
        </mxCell>
        <mxCell id="7v5v2RUlMiE2IS-w_AOE-29" value="Consulta le ingresa informaci칩n a la bases de datos" style="edgeLabel;html=1;align=center;verticalAlign=middle;resizable=0;points=[];" connectable="0" vertex="1" parent="7v5v2RUlMiE2IS-w_AOE-9">
          <mxGeometry x="-0.1701" y="1" relative="1" as="geometry">
            <mxPoint as="offset" />
          </mxGeometry>
        </mxCell>
        <mxCell id="7v5v2RUlMiE2IS-w_AOE-11" value="" style="strokeWidth=1;shadow=0;dashed=0;align=center;html=1;shape=mxgraph.mockup.containers.browserWindow;rSize=0;strokeColor=#666666;strokeColor2=#008cff;strokeColor3=#c4c4c4;mainText=,;recursiveResize=0;" vertex="1" parent="1">
          <mxGeometry x="200" y="390" width="320" height="150" as="geometry" />
        </mxCell>
        <mxCell id="7v5v2RUlMiE2IS-w_AOE-12" value="ManageFit" style="strokeWidth=1;shadow=0;dashed=0;align=center;html=1;shape=mxgraph.mockup.containers.anchor;fontSize=17;fontColor=#666666;align=left;whiteSpace=wrap;" vertex="1" parent="7v5v2RUlMiE2IS-w_AOE-11">
          <mxGeometry x="60" y="12" width="110" height="26" as="geometry" />
        </mxCell>
        <mxCell id="7v5v2RUlMiE2IS-w_AOE-13" value="http://localhost:5009/" style="strokeWidth=1;shadow=0;dashed=0;align=center;html=1;shape=mxgraph.mockup.containers.anchor;rSize=0;fontSize=17;fontColor=#666666;align=left;" vertex="1" parent="7v5v2RUlMiE2IS-w_AOE-11">
          <mxGeometry x="130" y="60" width="250" height="26" as="geometry" />
        </mxCell>
        <mxCell id="7v5v2RUlMiE2IS-w_AOE-22" value="Aplicaci칩n" style="text;html=1;align=center;verticalAlign=middle;whiteSpace=wrap;rounded=0;" vertex="1" parent="7v5v2RUlMiE2IS-w_AOE-11">
          <mxGeometry x="117.5" y="110" width="85" height="30" as="geometry" />
        </mxCell>
        <mxCell id="7v5v2RUlMiE2IS-w_AOE-14" value="Administrador" style="shape=umlActor;verticalLabelPosition=bottom;verticalAlign=top;html=1;outlineConnect=0;" vertex="1" parent="1">
          <mxGeometry x="190" y="170" width="30" height="60" as="geometry" />
        </mxCell>
        <mxCell id="7v5v2RUlMiE2IS-w_AOE-18" value="Entrenador" style="shape=umlActor;verticalLabelPosition=bottom;verticalAlign=top;html=1;outlineConnect=0;" vertex="1" parent="1">
          <mxGeometry x="490" y="170" width="30" height="60" as="geometry" />
        </mxCell>
        <mxCell id="7v5v2RUlMiE2IS-w_AOE-25" value="" style="endArrow=classic;html=1;rounded=0;entryX=0.189;entryY=-0.021;entryDx=0;entryDy=0;entryPerimeter=0;dashed=1;" edge="1" parent="1" target="7v5v2RUlMiE2IS-w_AOE-11">
          <mxGeometry width="50" height="50" relative="1" as="geometry">
            <mxPoint x="205" y="260" as="sourcePoint" />
            <mxPoint x="590" y="310" as="targetPoint" />
          </mxGeometry>
        </mxCell>
        <mxCell id="7v5v2RUlMiE2IS-w_AOE-27" value="Registro de clientes,&lt;div&gt;Registro de entrenadores,&lt;/div&gt;&lt;div&gt;Vista de informes&lt;/div&gt;&lt;div&gt;&lt;br&gt;&lt;/div&gt;" style="edgeLabel;html=1;align=center;verticalAlign=middle;resizable=0;points=[];" connectable="0" vertex="1" parent="7v5v2RUlMiE2IS-w_AOE-25">
          <mxGeometry x="-0.5381" y="-7" relative="1" as="geometry">
            <mxPoint x="9" y="18" as="offset" />
          </mxGeometry>
        </mxCell>
        <mxCell id="7v5v2RUlMiE2IS-w_AOE-26" value="" style="endArrow=classic;html=1;rounded=0;entryX=0.724;entryY=-0.006;entryDx=0;entryDy=0;entryPerimeter=0;dashed=1;" edge="1" parent="1" target="7v5v2RUlMiE2IS-w_AOE-11">
          <mxGeometry width="50" height="50" relative="1" as="geometry">
            <mxPoint x="510" y="260" as="sourcePoint" />
            <mxPoint x="450" y="310" as="targetPoint" />
          </mxGeometry>
        </mxCell>
        <mxCell id="7v5v2RUlMiE2IS-w_AOE-28" value="Realizar PMF,&lt;div&gt;informes de clientes asignados&lt;/div&gt;" style="edgeLabel;html=1;align=center;verticalAlign=middle;resizable=0;points=[];" connectable="0" vertex="1" parent="7v5v2RUlMiE2IS-w_AOE-26">
          <mxGeometry x="-0.1259" y="-6" relative="1" as="geometry">
            <mxPoint x="3" y="-3" as="offset" />
          </mxGeometry>
        </mxCell>
        <mxCell id="7v5v2RUlMiE2IS-w_AOE-31" value="" style="endArrow=classic;html=1;rounded=0;exitX=0.432;exitY=1.016;exitDx=0;exitDy=0;exitPerimeter=0;entryX=0.5;entryY=0;entryDx=0;entryDy=0;dashed=1;" edge="1" parent="1" source="7v5v2RUlMiE2IS-w_AOE-11" target="7v5v2RUlMiE2IS-w_AOE-6">
          <mxGeometry width="50" height="50" relative="1" as="geometry">
            <mxPoint x="640" y="550" as="sourcePoint" />
            <mxPoint x="690" y="500" as="targetPoint" />
          </mxGeometry>
        </mxCell>
        <mxCell id="7v5v2RUlMiE2IS-w_AOE-32" value="Llama la funci칩n o procedimiento a realizar" style="edgeLabel;html=1;align=center;verticalAlign=middle;resizable=0;points=[];" connectable="0" vertex="1" parent="7v5v2RUlMiE2IS-w_AOE-31">
          <mxGeometry x="-0.1201" y="-1" relative="1" as="geometry">
            <mxPoint y="-1" as="offset" />
          </mxGeometry>
        </mxCell>
      </root>
    </mxGraphModel>
  </diagram>
</mxfile>
